<?xml version="1.0" encoding="UTF-8"?>
<svg id="Calque_1" data-name="Calque 1" xmlns="http://www.w3.org/2000/svg" viewBox="0 0 683.46 152.7">
  <defs>
    <style>
      .cls-1 {
        fill: #fff;
      }
    </style>
  </defs>
  <path class="cls-1" d="M0,63.98V1.25H18.78V63.98H0Zm41.83,0L28.38,29.91,43.25,1.25h19.55l-15.68,28.66,15.68,34.07h-20.97Z"/>
  <path class="cls-1" d="M114.96,1.25V35.66c0,3.95-.21,7.1-.62,9.45-.42,2.35-1.08,4.64-2,6.88-1.72,4.04-4.34,7.25-7.86,9.65s-7.42,3.59-11.69,3.59-8.14-1.2-11.71-3.59-6.19-5.61-7.88-9.65c-.95-2.23-1.63-4.53-2.04-6.88-.42-2.35-.62-5.5-.62-9.45V1.25h18.39V39.27c0,2.44,.31,4.17,.92,5.2,.62,1.03,1.63,1.55,3.03,1.55s2.35-.48,2.92-1.44c.57-.96,.86-2.73,.86-5.31V1.25h18.3Z"/>
  <path class="cls-1" d="M128.36,63.98V28.79c0-3.61,.21-6.57,.62-8.87,.42-2.31,1.1-4.55,2.04-6.72,1.69-4.01,4.32-7.21,7.88-9.6,3.57-2.39,7.47-3.59,11.71-3.59,3.58,0,6.92,.86,10.01,2.58s5.66,4.11,7.69,7.18c1.6,2.46,2.75,5.18,3.44,8.14s1.03,7.18,1.03,12.65V63.98h-18.3V26.04c0-2.41-.32-4.15-.95-5.22-.63-1.07-1.66-1.61-3.09-1.61-1.32,0-2.26,.47-2.84,1.42-.57,.95-.86,2.75-.86,5.41V63.98h-18.39Z"/>
  <path class="cls-1" d="M184.6,64.15v-17.83c.8,.14,1.48,.25,2.02,.32,.54,.07,1.02,.11,1.42,.11,1.55,0,2.76-.42,3.63-1.25,.87-.83,1.31-1.98,1.31-3.44,0-1.63-.75-3.64-2.23-6.02-.17-.29-.3-.5-.39-.64-.11-.17-.24-.37-.39-.6-2.92-4.75-4.38-9.14-4.38-13.15,0-5.79,2.13-10.84,6.4-15.17,4.27-4.33,9.35-6.49,15.25-6.49,1.46,0,2.97,.16,4.53,.47,1.56,.32,3.24,.8,5.05,1.46V20.07c-1.15-.49-2.11-.83-2.9-1.03-.79-.2-1.55-.3-2.3-.3-1.4,0-2.55,.44-3.44,1.33s-1.33,2.03-1.33,3.44c0,1.32,.73,3.19,2.19,5.63,.29,.52,.5,.9,.64,1.16,1.32,2.23,2.29,4.45,2.92,6.64,.63,2.19,.95,4.4,.95,6.64,0,6.25-2.09,11.43-6.27,15.55-4.18,4.12-9.34,6.19-15.47,6.19-1.06,0-2.16-.09-3.31-.28-1.15-.19-2.45-.48-3.91-.88Z"/>
  <path class="cls-1" d="M224.98,19.55V1.25h45.68V19.55h-13.45V63.98h-18.78V19.55h-13.45Z"/>
  <path class="cls-1" d="M282.69,63.98V1.25h18.78V24.02h4.81v16.71h-4.81v23.25h-18.78Zm26.51,0V1.25h18.73V63.98h-18.73Z"/>
  <path class="cls-1" d="M342.19,63.98V30.55c0-3.49,.09-6.13,.28-7.91,.19-1.78,.48-3.45,.88-5.03,1.43-5.59,4.03-9.92,7.8-13,3.77-3.08,8.33-4.62,13.69-4.62,3.7,0,7.12,.85,10.27,2.54,3.15,1.69,5.74,4.07,7.78,7.13,1.6,2.49,2.76,5.26,3.48,8.29,.72,3.04,1.07,7.23,1.07,12.59V63.98h-18.39V26.04c0-2.46-.31-4.22-.92-5.26-.62-1.05-1.63-1.57-3.03-1.57s-2.3,.47-2.86,1.42-.84,2.75-.84,5.41v6.62h4.86v16.63h-4.86v14.7h-19.21Z"/>
  <path class="cls-1" d="M400.92,1.25h18.73V38.29c0,2.55,.52,4.45,1.57,5.69,1.05,1.25,2.64,1.87,4.79,1.87,.46,0,.82,0,1.07-.02,.26-.01,.47-.04,.64-.06l.04,18.22h-4.25c-3.52,0-6.59-.44-9.2-1.33-2.61-.89-4.9-2.26-6.88-4.12-2.35-2.18-4.02-4.73-5.03-7.65-1-2.92-1.5-7.62-1.5-14.09V1.25Z"/>
  <path class="cls-1" d="M438.43,1.25h18.73V38.29c0,2.55,.52,4.45,1.57,5.69s2.64,1.87,4.79,1.87c.46,0,.82,0,1.07-.02,.26-.01,.47-.04,.64-.06l.04,18.22h-4.25c-3.52,0-6.59-.44-9.2-1.33-2.61-.89-4.9-2.26-6.88-4.12-2.35-2.18-4.02-4.73-5.03-7.65s-1.5-7.62-1.5-14.09V1.25Z"/>
  <path class="cls-1" d="M511.13,63.98h-13.02c-3.24,0-5.8-.2-7.69-.6-1.89-.4-3.67-1.04-5.33-1.93-2.87-1.58-5.11-3.64-6.72-6.21-1.62-2.56-2.43-5.28-2.43-8.14V23.59c0-5.24,.49-9.07,1.48-11.47s2.67-4.57,5.05-6.49c1.83-1.55,4.05-2.66,6.66-3.35,2.61-.69,5.93-1.03,9.97-1.03h12.03V19.55h-11.95c-1.4,0-2.37,.22-2.9,.67-.53,.44-.79,1.18-.79,2.21,0,1.12,.29,1.93,.86,2.43,.57,.5,1.52,.75,2.84,.75h11.17v14.01h-12.93c-1.38,0-2.32,.22-2.84,.67-.52,.44-.77,1.18-.77,2.21,0,1.15,.27,1.96,.82,2.45,.54,.49,1.47,.73,2.79,.73h13.71v18.3Z"/>
</svg>